<svg xmlns="http://www.w3.org/2000/svg" xmlns:xlink="http://www.w3.org/1999/xlink" xmlns:lucid="lucid" width="1076.34" height="770.46"><g transform="translate(-360 -240.73011818330508)" lucid:page-tab-id="0_0"><path d="M0 0h1870.87v1322.83H0z" fill="#fff"/><path d="M605.97 362.8c0-3.3 2.68-6 6-6h148c3.3 0 6 2.7 6 6v48c0 3.32-2.7 6-6 6h-148c-3.32 0-6-2.68-6-6z" stroke="#3a414a" fill="#fff"/><use xlink:href="#a" transform="matrix(1,0,0,1,617.9675102655532,368.8046442911258) translate(29.820987654320987 22.27777777777778)"/><path d="M514.5 330.84c.06-.12.2-.18.33-.13l106.7 45.95c.13.05.2.2.13.33-.05.12-.2.18-.33.13l-106.7-45.93c-.12-.05-.18-.2-.13-.33zM521.3 448.38c-.06-.12-.02-.28.1-.35l92.28-54.14c.12-.08.27-.04.34.08s.03.27-.1.34l-92.27 54.14c-.12.07-.27.03-.34-.08z" stroke="#3a414a" stroke-width=".5" fill="none"/><path d="M525.97 457.3c0 11.33-22.4 20.5-50 20.5-27.62 0-50-9.17-50-20.5 0-11.32 22.38-20.5 50-20.5 27.6 0 50 9.18 50 20.5z" stroke="#3a414a" fill="#fff"/><use xlink:href="#b" transform="matrix(1,0,0,1,430.9675102655532,441.8046442911258) translate(23.867222222222225 18.64805555555555)"/><path d="M580 320.74c0 13.22-34.48 23.94-77.02 23.94-42.53 0-77-10.72-77-23.94s34.47-23.94 77-23.94c42.54 0 77.02 10.72 77.02 23.94z" stroke="#3a414a" fill="#fff"/><use xlink:href="#c" transform="matrix(1,0,0,1,430.9675102655532,301.8046442911258) translate(8.89388888888889 22.33555555555555)"/><path d="M496.22 384.05c0-.14.1-.25.25-.25h109c.14 0 .25.1.25.25 0 .14-.1.25-.25.25h-109c-.14 0-.25-.1-.25-.25z" stroke="#3a414a" stroke-width=".5" fill="none"/><path d="M495.97 384.05c0 9.96-25.96 18.04-58 18.04-32 0-57.97-8.1-57.97-18.05 0-9.96 25.96-18.04 57.98-18.04 32.03 0 58 8.1 58 18.05z" stroke="#3a414a" fill="#fff"/><use xlink:href="#d" transform="matrix(1,0,0,1,385,371.01477773096553) translate(32.818333333333335 17.89805555555555)"/><path d="M546.47 504.72c-.08-.1-.06-.26.05-.35l110.1-85.92c.1-.1.26-.07.35.04.08.1.06.26-.05.34l-110.1 85.93c-.1.08-.26.06-.35-.05z" stroke="#3a414a" stroke-width=".5" fill="none"/><path d="M561.94 514.84c0 9.96-25.97 18.04-58 18.04-32 0-57.97-8.08-57.97-18.04 0-9.96 25.96-18.04 57.98-18.04 32.02 0 58 8.08 58 18.04z" stroke="#3a414a" fill="#fff"/><use xlink:href="#e" transform="matrix(1,0,0,1,450.9675102655532,501.8046442911258) translate(32.26722222222223 17.89805555555555)"/><path d="M1040 382.8c0-3.3 2.7-6 6-6h148c3.3 0 6 2.7 6 6v48c0 3.32-2.7 6-6 6h-148c-3.3 0-6-2.68-6-6z" stroke="#3a414a" fill="#fff"/><use xlink:href="#f" transform="matrix(1,0,0,1,1052,388.8046442911258) translate(40.870370370370374 22.27777777777778)"/><path d="M1307.54 443.96c-.02.14-.15.23-.3.2l-112.4-17.52c-.13-.02-.23-.14-.2-.28 0-.14.14-.23.28-.2l112.4 17.52c.15.02.24.15.22.28zM1284.66 345.23c.07.12.03.28-.1.35l-92.27 54.14c-.13.07-.28.03-.35-.1-.07-.1-.03-.26.1-.33l92.26-54.16c.13-.07.3-.03.36.1z" stroke="#3a414a" stroke-width=".5" fill="none"/><path d="M1400 333.37c0 12.94-26.86 23.43-60 23.43s-60-10.5-60-23.43c0-12.94 26.86-23.43 60-23.43s60 10.5 60 23.43z" stroke="#3a414a" fill="#fff"/><use xlink:href="#g" transform="matrix(1,0,0,1,1285,314.9402516231448) translate(5.657777777777788 22.793611111111108)"/><path d="M1407.86 442.82c0 11.33-22.38 20.5-50 20.5-27.6 0-50-9.17-50-20.5 0-11.32 22.4-20.5 50-20.5 27.62 0 50 9.18 50 20.5z" stroke="#3a414a" fill="#fff"/><use xlink:href="#h" transform="matrix(1,0,0,1,1312.8612654818355,427.32420601390595) translate(-10.519999999999996 19.446666666666665)"/><path d="M1299.7 393.38c0 .14-.1.26-.23.28l-107.4 11.4c-.15.02-.27-.08-.3-.2 0-.15.1-.27.23-.3l107.42-11.4c.13 0 .26.08.27.22z" stroke="#3a414a" stroke-width=".5" fill="none"/><path d="M1407.86 393.7c0 9.97-25.96 18.04-57.98 18.04-32.03 0-58-8.07-58-18.03s25.97-18.03 58-18.03c32.02 0 57.98 8.07 57.98 18.04z" stroke="#3a414a" fill="#fff"/><use xlink:href="#e" transform="matrix(1,0,0,1,1296.8937552162822,380.66779240170877) translate(32.26722222222223 17.89805555555555)"/><path d="M1259.5 288.9c.08.1.06.25-.05.34l-110.1 85.92c-.1.1-.26.07-.35-.04-.08-.1-.06-.27.05-.35l110.1-85.93c.1-.08.26-.06.35.05z" stroke="#3a414a" stroke-width=".5" fill="none"/><path d="M1360 278.77c0 9.96-25.96 18.03-57.98 18.03-32.03 0-58-8.07-58-18.03s25.97-18.04 58-18.04c32.02 0 57.98 8.08 57.98 18.04z" stroke="#3a414a" fill="#fff"/><use xlink:href="#b" transform="matrix(1,0,0,1,1249.032489734447,265.7301181833051) translate(31.867222222222225 17.89805555555555)"/><path d="M1246.05 478.44c-.06.12-.2.18-.33.12l-72.06-33.9c-.13-.07-.18-.22-.12-.34.06-.13.2-.18.33-.12l72.06 33.9c.13.06.18.2.12.34z" stroke="#3a414a" stroke-width=".5" fill="none"/><path d="M1373.85 513.4c-4.4 17.94-37.4 25.28-73.72 16.4-36.32-8.9-62.2-30.64-57.82-48.58 4.4-17.94 37.4-25.28 73.73-16.4 36.32 8.9 62.2 30.64 57.82 48.58z" stroke="#3a414a" fill="#fff"/><use xlink:href="#i" transform="matrix(0.9713508349969799,0.2376500691156431,-0.2376500691156431,0.9713508349969799,1253.931209896873,454.7815908777019) translate(0.3777777777777729 34.21055555555555)"/><path d="M680 828.5c0-3.32 2.7-6 6-6h168c3.3 0 6 2.68 6 6v49.34c0 3.3-2.7 6-6 6H686c-3.3 0-6-2.7-6-6z" stroke="#3a414a" fill="#fff"/><use xlink:href="#j" transform="matrix(1,0,0,1,692,834.4929800517443) translate(3.694444444444457 23.125)"/><path d="M967.54 891c-.02.13-.15.23-.3.2l-112.4-17.52c-.13-.02-.23-.15-.2-.3 0-.12.14-.22.28-.2l112.4 17.53c.15.03.24.16.22.3zM944.66 792.27c.07.12.03.27-.1.34l-92.27 54.15c-.13.07-.28.03-.35-.1-.07-.1-.03-.26.1-.33l92.26-54.14c.13-.07.3-.03.36.1z" stroke="#3a414a" stroke-width=".5" fill="none"/><path d="M1060 780.4c0 12.95-26.86 23.44-60 23.44s-60-10.5-60-23.43c0-12.94 26.86-23.43 60-23.43s60 10.5 60 23.44z" stroke="#3a414a" fill="#fff"/><use xlink:href="#k" transform="matrix(1,0,0,1,945,761.9728703859294) translate(30.577777777777783 22.793611111111108)"/><path d="M1100 886.42c0 13.22-29.58 23.94-66.07 23.94-36.5 0-66.07-10.72-66.07-23.94 0-13.2 29.58-23.93 66.07-23.93 36.5 0 66.07 10.7 66.07 23.92z" stroke="#3a414a" fill="#fff"/><use xlink:href="#l" transform="matrix(1,0,0,1,972.8612654818356,867.4929800517443) translate(5.973888888888888 22.33555555555555)"/><path d="M959.7 840.4c0 .15-.1.28-.23.3l-107.4 11.4c-.15.02-.27-.08-.3-.22 0-.14.1-.26.23-.27l107.42-11.4c.13-.02.26.08.27.2z" stroke="#3a414a" stroke-width=".5" fill="none"/><path d="M1075.97 830.53c0 15.48-25.96 28.04-58 28.04-32 0-57.97-12.56-57.97-28.04 0-15.48 25.96-28.04 57.98-28.04 32.03 0 58 12.55 58 28.03z" stroke="#3a414a" fill="#fff"/><use xlink:href="#m" transform="matrix(1,0,0,1,965,807.4929800517443) translate(0.4222222222222456 24.845555555555553)"/><path d="M926.9 739.28c.1.1.1.26 0 .36l-81.9 81.9c-.1.08-.25.08-.34 0-.1-.1-.1-.27 0-.37l81.9-81.9c.08-.08.24-.08.34 0z" stroke="#3a414a" stroke-width=".5" fill="none"/><path d="M1035.97 731.17c0 14.25-25.96 25.8-58 25.8-32 0-57.97-11.55-57.97-25.8s25.96-25.8 57.98-25.8c32.03 0 58 11.55 58 25.8z" stroke="#3a414a" fill="#fff"/><use xlink:href="#n" transform="matrix(1,0,0,1,925,710.3728703859293) translate(15.979074074074065 15.876666666666669)"/><use xlink:href="#o" transform="matrix(1,0,0,1,925,710.3728703859293) translate(52.504999999999995 36.67666666666667)"/><path d="M884.04 923.74c-.05.12-.2.17-.33.12l-83.14-39.13c-.13-.06-.18-.2-.12-.33s.2-.18.33-.12l83.15 39.12c.13.06.18.2.12.34z" stroke="#3a414a" stroke-width=".5" fill="none"/><path d="M1011.84 958.7c-4.4 17.94-37.4 25.28-73.7 16.4-36.34-8.9-62.22-30.64-57.83-48.58 4.4-17.94 37.4-25.28 73.72-16.4 36.32 8.9 62.2 30.64 57.82 48.58z" stroke="#3a414a" fill="#fff"/><use xlink:href="#i" transform="matrix(0.9713508349969799,0.2376500691156431,-0.2376500691156431,0.9713508349969799,891.9241228826143,900.0801961174562) translate(0.3777777777777729 34.21055555555555)"/><path d="M825.5 822.82c-.13-.03-.22-.16-.2-.3l28.18-141.98c.02-.14.15-.22.3-.2.13.03.2.16.2.3L825.8 822.62c-.03.14-.16.23-.3.2z" stroke="#3a414a" stroke-width=".5" fill="none"/><path d="M919.48 724.5c-4.4 17.93-37.4 25.27-73.7 16.38-36.34-8.88-62.22-30.63-57.83-48.57 4.4-17.93 37.4-25.27 73.7-16.4 36.33 8.9 62.22 30.65 57.83 48.6z" stroke="#3a414a" fill="#fff"/><use xlink:href="#p" transform="matrix(0.9713508349969799,0.2376500691156431,-0.2376500691156431,0.9713508349969799,799.5641678526697,665.8663928804876) translate(39.11555555555556 34.21055555555555)"/><path d="M886.62 396.3c2.65-1.98 6.94-1.98 9.58 0l81.83 61.7c2.65 2 2.65 5.22 0 7.22L896.2 526.9c-2.64 2-6.93 2-9.58 0l-81.83-61.68c-2.65-2-2.65-5.23 0-7.23z" stroke="#3a414a" fill="#fff"/><use xlink:href="#q" transform="matrix(1,0,0,1,805,397.7033043918812) translate(41.504999999999995 69.77777777777777)"/><path d="M717.9 455.54l.76 2.83 1.97 1.97 2.83.77h1.94v1h-2.07l-3.22-.87-2.33-2.34-.87-3.23V417.8h1zm68.1 5.57v1h-35.9v-1z" stroke="#3a414a" stroke-width=".05" fill="#3a414a"/><path d="M717.9 417.82h-1v-.52h1z" fill="#3a414a"/><path d="M717.92 417.84h-1.05v-.56h1.05zm-1-.5v.45h.95v-.47z" stroke="#3a414a" stroke-width=".05" fill="#3a414a"/><path d="M800.78 461.6l-14.27 4.64v-9.27z" fill="#3a414a"/><path d="M802.4 461.6l-16.4 5.33v-10.65zm-15.4 3.95l12.16-3.94-12.15-3.94z" stroke="#3a414a" stroke-width=".05" fill="#3a414a"/><use xlink:href="#r" transform="matrix(1,0,0,1,725.3992927050773,450.9389598707774) translate(0 14.222222222222223)"/><path d="M1061.62 462.1h-80.7v-1h80.7zm58.88-6.43l-.87 3.22-2.34 2.33-3.23.88h-27.76v-1h27.63l2.84-.76 1.96-1.97.77-2.83v-1.85h1z" stroke="#3a414a" stroke-width=".05" fill="#3a414a"/><path d="M980.94 462.1h-.44l-.16-1h.6z" fill="#3a414a"/><path d="M980.96 462.13h-.48l-.17-1.05h.66zm-.6-1l.16.95h.4v-.95z" stroke="#3a414a" stroke-width=".05" fill="#3a414a"/><path d="M1124.64 453.2h-9.28l4.64-14.28z" fill="#3a414a"/><path d="M1125.32 453.7h-10.64l5.32-16.4zm-9.27-1h7.9l-3.95-12.16z" stroke="#3a414a" stroke-width=".05" fill="#3a414a"/><use xlink:href="#r" transform="matrix(1,0,0,1,1061.6168315932669,450.9389598024025) translate(0 14.222222222222223)"/><path d="M753.15 511.3H596.07l-2.84.78-1.96 1.96-.77 2.84v237.05l.77 2.84 1.96 1.96 2.84.77h91.24l3.23.87 2.34 2.34.88 3.23v39.68h-1v-39.53l-.77-2.84-1.97-1.96-2.82-.77h-91.25l-3.22-.87-2.33-2.34-.87-3.23V516.75l.87-3.22 2.34-2.34 3.23-.9h157.22zm83.94-6.42l-.88 3.22-2.34 2.34-3.22.87h-52.82v-1h52.7l2.82-.75 1.97-1.97.76-2.83V490.3h1z" stroke="#3a414a" stroke-width=".05" fill="#3a414a"/><path d="M837.1 490.2v.13h-1v-.9z" fill="#3a414a"/><path d="M837.12 490.18v.17h-1.05v-.96zm-1 .12h.95v-.1l-.95-.7z" stroke="#3a414a" stroke-width=".05" fill="#3a414a"/><path d="M693.25 820.37l-4.64-14.26h9.28z" fill="#3a414a"/><path d="M693.25 822l-5.33-16.4h10.65zm-3.95-15.4l3.95 12.16 3.94-12.15z" stroke="#3a414a" stroke-width=".05" fill="#3a414a"/><use xlink:href="#r" transform="matrix(1,0,0,1,753.1476459762671,500.1471432429072) translate(0 14.222222222222223)"/><path d="M1058.02 534.1c2.65-1.98 6.95-1.98 9.6 0l70.4 52.8c2.65 2 2.65 5.22 0 7.2l-70.4 52.8c-2.65 2-6.95 2-9.6 0l-70.4-52.8c-2.65-1.98-2.65-5.2 0-7.2z" stroke="#3a414a" fill="#fff"/><use xlink:href="#s" transform="matrix(1,0,0,1,987.8206525936554,535.507948683007) translate(36.764259259259255 59.02777777777778)"/><path d="M1145.5 578.7h-1v-51.84h1zm0-73.17h-1V437.8h1z" stroke="#3a414a" stroke-width=".05" fill="#3a414a"/><path d="M1145.5 437.82h-1v-.52h1z" fill="#3a414a"/><path d="M1145.52 437.84h-1.05v-.56h1.05zm-1-.5v.45h.95v-.47z" stroke="#3a414a" stroke-width=".05" fill="#3a414a"/><path d="M1150.48 577.37L1141 589l.83-14.98z" fill="#3a414a"/><path d="M1151.3 577.15l-10.88 13.36.95-17.2zm-9.7 10.34l8.05-9.9-7.36-2.86z" stroke="#3a414a" stroke-width=".05" fill="#3a414a"/><use xlink:href="#r" transform="matrix(1,0,0,1,1132.6460981677121,505.52694860488606) translate(0 14.222222222222223)"/><path d="M739.2 821.5h-1V709.6h1zM968.84 591H744.77l-2.83.77-1.97 1.97-.77 2.83v91.7h-1v-91.83l.88-3.22 2.34-2.34 3.22-.87h224.2z" stroke="#3a414a" stroke-width=".05" fill="#3a414a"/><path d="M739.2 822h-1v-.52h1z" fill="#3a414a"/><path d="M739.23 822.02h-1.05v-.56h1.05zm-1-.5v.45h.95v-.46z" stroke="#3a414a" stroke-width=".05" fill="#3a414a"/><path d="M983.6 590.5l-14.26 4.64v-9.27z" fill="#3a414a"/><path d="M985.22 590.5l-16.38 5.33v-10.65zm-15.38 3.96L982 590.5l-12.16-3.94z" stroke="#3a414a" stroke-width=".05" fill="#3a414a"/><use xlink:href="#t" transform="matrix(1,0,0,1,726.3586933618852,688.261316425875) translate(0 14.222222222222223)"/><defs><path fill="#3a414a" d="M232-93c-1 65-40 97-104 97C67 4 28-28 28-90v-158h33c8 89-33 224 67 224 102 0 64-133 71-224h33v155" id="u"/><path fill="#3a414a" d="M135-143c-3-34-86-38-87 0 15 53 115 12 119 90S17 21 10-45l28-5c4 36 97 45 98 0-10-56-113-15-118-90-4-57 82-63 122-42 12 7 21 19 24 35" id="v"/><path fill="#3a414a" d="M84 4C-5 8 30-112 23-190h32v120c0 31 7 50 39 49 72-2 45-101 50-169h31l1 190h-30c-1-10 1-25-2-33-11 22-28 36-60 37" id="w"/><path fill="#3a414a" d="M141-36C126-15 110 5 73 4 37 3 15-17 15-53c-1-64 63-63 125-63 3-35-9-54-41-54-24 1-41 7-42 31l-33-3c5-37 33-52 76-52 45 0 72 20 72 64v82c-1 20 7 32 28 27v20c-31 9-61-2-59-35zM48-53c0 20 12 33 32 33 41-3 63-29 60-74-43 2-92-5-92 41" id="x"/><path fill="#3a414a" d="M114-163C36-179 61-72 57 0H25l-1-190h30c1 12-1 29 2 39 6-27 23-49 58-41v29" id="y"/><path fill="#3a414a" d="M24-231v-30h32v30H24zM24 0v-190h32V0H24" id="z"/><path fill="#3a414a" d="M100-194c62-1 85 37 85 99 1 63-27 99-86 99S16-35 15-95c0-66 28-99 85-99zM99-20c44 1 53-31 53-75 0-43-8-75-51-75s-53 32-53 75 10 74 51 75" id="A"/><g id="a"><use transform="matrix(0.06172839506172839,0,0,0.06172839506172839,0,0)" xlink:href="#u"/><use transform="matrix(0.06172839506172839,0,0,0.06172839506172839,15.987654320987653,0)" xlink:href="#v"/><use transform="matrix(0.06172839506172839,0,0,0.06172839506172839,27.098765432098766,0)" xlink:href="#w"/><use transform="matrix(0.06172839506172839,0,0,0.06172839506172839,39.44444444444444,0)" xlink:href="#x"/><use transform="matrix(0.06172839506172839,0,0,0.06172839506172839,51.79012345679012,0)" xlink:href="#y"/><use transform="matrix(0.06172839506172839,0,0,0.06172839506172839,59.1358024691358,0)" xlink:href="#z"/><use transform="matrix(0.06172839506172839,0,0,0.06172839506172839,64.01234567901234,0)" xlink:href="#A"/></g><path fill="#3a414a" d="M313-387c-24-9-119 47-142 64v189c0 81 1 80 10 94 10 15 27 20 62 20V0H28v-20c24 1 47-9 59-23 23-29 13-170 13-231 0-106 10-71-69-100v-16l124-46h16v93c77-55 147-87 189-87 146 0 113 207 103 365-2 38 28 47 84 45V0H316v-20c46-4 61-12 70-36 8-21 14-117 14-209 0-77-24-117-87-122" id="B"/><path fill="#3a414a" d="M274 13C149 13 40-81 40-214c0-125 100-222 230-222 131 0 232 98 232 226C502-85 402 13 274 13zM120-244c0 128 74 232 166 232 78 0 136-74 136-172 0-123-76-227-166-227-78 0-136 71-136 167" id="C"/><path fill="#3a414a" d="M657-436c149-1 101 215 101 367 0 42 30 51 92 49V0H609v-20c49 1 70-7 75-47 4-31 16-253-6-280-13-29-38-46-69-46-33 0-91 25-144 62v197c0 81 1 81 10 94 10 15 27 21 58 20V0H314v-20c29 1 53-8 67-23 21-21 13-159 13-214 0-71-1-79-11-99-11-23-39-38-68-38-33 0-71 16-144 62v198c0 81 1 80 10 94 10 16 29 21 66 20V0H24v-20c28 1 51-8 63-23 24-30 13-175 13-238 0-55-2-64-4-72-3-12-41-20-69-21v-18l128-46h16v86c87-58 148-84 193-84 51 0 89 33 99 85 91-58 152-85 194-85" id="D"/><path fill="#3a414a" d="M418-98C381-53 308 13 227 13 122 13 40-83 40-207c0-115 76-230 209-230 86 0 128 35 154 107 7 19 24 23 21 50H111C88-151 163-39 270-40c54 0 95-22 136-71zM114-300h220c-11-70-54-116-108-116-53 0-93 41-112 116" id="E"/><g id="b"><use transform="matrix(0.017777777777777774,0,0,0.017777777777777774,0,0)" xlink:href="#B"/><use transform="matrix(0.017777777777777774,0,0,0.017777777777777774,9.706666666666665,0)" xlink:href="#C"/><use transform="matrix(0.017777777777777774,0,0,0.017777777777777774,19.14666666666666,0)" xlink:href="#D"/><use transform="matrix(0.017777777777777774,0,0,0.017777777777777774,34.133333333333326,0)" xlink:href="#E"/></g><path fill="#3a414a" d="M147-558c-47 0-83-32-83-73 0-40 40-74 88-74 46 0 83 33 83 74s-39 73-88 73zm72 439c-3 69 14 79 66 85V0H17v-34c52 3 71-15 71-75v-202c12-50-41-50-72-67v-26l183-60h20v345" id="F"/><path fill="#3a414a" d="M383-560c4-66-26-64-72-78v-26l167-53h36v576c-4 82 24 87 76 73v32L412 11h-29v-85c-67 59-118 85-172 85C109 11 37-73 37-191c0-176 155-306 346-244v-125zM168-249c0 167 125 237 215 127v-239c-91-93-215-43-215 112" id="G"/><path fill="#3a414a" d="M0 92h500v74H0V92" id="H"/><path fill="#3a414a" d="M88-152v-163c4-56-16-55-45-71v-24l154-39h22v235c0 71 3 95 17 115 12 19 31 29 53 29 25 0 62-15 108-44v-194c9-66-47-60-88-77v-25l219-39v328c-4 73 21 71 63 58v33L418 11h-21v-85c-96 61-150 85-193 85-76 0-116-57-116-163" id="I"/><path fill="#3a414a" d="M220 12c-28 0-77-8-111-16-6 0-12 4-22 14H57L45-126h34c24 60 61 91 112 91 47 0 73-53 39-84-14-12-13-13-80-56-78-50-104-84-104-138 0-125 169-167 287-114l2 115h-33c-20-60-56-93-102-93-28 0-49 18-49 42 0 27 20 48 78 81 68 39 75 44 97 66 23 23 36 56 36 92 0 79-60 136-142 136" id="J"/><path fill="#3a414a" d="M251-450c91 0 175 40 175 150 0 55-2 180 4 217 10 24 27 21 49 4l16 25c-35 37-87 64-122 64-40 0-66-22-75-64-36 29-76 65-134 65C87 11 39-32 39-101c0-74 46-111 122-130 63-16 104-39 132-64 7-62-13-111-66-112-43-1-65 35-56 83L51-282c-4-17-5-25-5-36 0-85 127-132 205-132zm-83 327c0 44 22 74 54 74 18 0 32-8 73-44v-154c-20 16-28 20-69 39-43 21-58 43-58 85" id="K"/><path fill="#3a414a" d="M20 0v-34c50 2 68-17 68-75v-176c6-63-27-67-68-83v-27l176-66h23v120c69-113 55-119 140-98l62 24c-12 41-33 89-51 114-26-8-58-27-88-27-20 0-40 15-63 48v161c-4 81 28 88 100 85V0H20" id="L"/><path fill="#3a414a" d="M37-216c0-131 118-234 269-234 148 0 254 93 254 223C560-90 445 11 288 11 141 11 37-83 37-216zm142-61c0 100 44 244 143 244 60 0 96-49 96-133 0-139-58-239-139-239-63 0-100 48-100 128" id="M"/><path fill="#3a414a" d="M72-238c0-167 123-358 233-445h45C247-559 203-426 203-231c0 189 44 325 144 443h-45c-61-55-96-92-126-134C110-12 72-127 72-238" id="N"/><path fill="#3a414a" d="M272-136c-6 97 40 92 126 94V0H33v-42c78-4 91 0 91-87v-409c6-91-19-83-99-87v-42c124-8 304-17 345-17 163 0 294 69 295 210 0 124-105 204-269 204-41 0-80-4-124-11v145zm0-189c130 29 232-21 232-154 0-132-105-186-232-151v305" id="O"/><path fill="#3a414a" d="M271-136c-1 86 23 90 100 94V0H21v-42c78-3 102-8 102-94v-395c2-87-23-91-102-94v-42h350v42c-87 3-100 14-100 113v166c48-7 110-45 158-99 51-58 87-117 87-145 0-25-18-34-76-35v-42h286v42c-90 7-106 18-165 101-55 79-98 127-128 148 36 21 83 74 170 187C699-64 729-42 803-42V0H438v-42c35-1 44-2 55-7 11-4 19-13 19-22 18 2-183-262-241-240v175" id="P"/><path fill="#3a414a" d="M60-683c109 85 234 271 234 445 0 120-43 242-120 337-27 33-58 65-111 113H18C118 95 163-42 163-233c0-192-45-329-148-450h45" id="Q"/><g id="c"><use transform="matrix(0.017777777777777774,0,0,0.017777777777777774,0,0)" xlink:href="#F"/><use transform="matrix(0.017777777777777774,0,0,0.017777777777777774,5.35111111111111,0)" xlink:href="#G"/><use transform="matrix(0.017777777777777774,0,0,0.017777777777777774,15.875555555555554,0)" xlink:href="#H"/><use transform="matrix(0.017777777777777774,0,0,0.017777777777777774,24.764444444444443,0)" xlink:href="#I"/><use transform="matrix(0.017777777777777774,0,0,0.017777777777777774,35.626666666666665,0)" xlink:href="#J"/><use transform="matrix(0.017777777777777774,0,0,0.017777777777777774,42.77333333333333,0)" xlink:href="#I"/><use transform="matrix(0.017777777777777774,0,0,0.017777777777777774,53.68888888888889,0)" xlink:href="#K"/><use transform="matrix(0.017777777777777774,0,0,0.017777777777777774,62.48888888888889,0)" xlink:href="#L"/><use transform="matrix(0.017777777777777774,0,0,0.017777777777777774,70.45333333333333,0)" xlink:href="#F"/><use transform="matrix(0.017777777777777774,0,0,0.017777777777777774,75.68,0)" xlink:href="#M"/><use transform="matrix(0.017777777777777774,0,0,0.017777777777777774,86.27555555555556,0)" xlink:href="#N"/><use transform="matrix(0.017777777777777774,0,0,0.017777777777777774,93.03111111111112,0)" xlink:href="#O"/><use transform="matrix(0.017777777777777774,0,0,0.017777777777777774,105.36888888888889,0)" xlink:href="#P"/><use transform="matrix(0.017777777777777774,0,0,0.017777777777777774,119.46666666666667,0)" xlink:href="#Q"/><path fill="#3a414a" d="M-.9.9h128v.88H-.9z"/></g><path fill="#3a414a" d="M255-52c-39 28-89 75-129 65-56 0-95-36-95-88 0-54 33-80 126-105 41-11 68-23 96-41v-85c7-65-33-99-79-99-38 0-82 36-60 72l-73 36c-23-58 109-139 155-139 43 0 88 24 112 56 34 46 3 251 20 323 3 12 12 18 25 18 16 0 29-6 52-23l5 15c-40 36-83 60-106 60-30 0-47-23-49-65zm-92 27c14 8 60-30 90-47v-128c-19 11-32 17-93 42-43 18-60 38-60 70 0 35 28 63 63 63" id="R"/><path fill="#3a414a" d="M136-604c-28 0-47-17-47-42 0-23 20-40 47-40s47 17 47 41-20 41-47 41zM18-20c77-11 89-9 89-105v-179c0-56 0-55-56-67l-27-6v-17l139-48h15v317c0 62 1 68 13 83 12 14 26 19 64 22V0H18v-20" id="S"/><path fill="#3a414a" d="M11 0v-20c35 1 61-6 75-22 14-15 14-16 14-95v-434c0-65 0-65-6-72-6-10-55-12-75-16v-18l136-44h16c2 216-4 455 3 664 8 28 34 38 78 37V0H11" id="T"/><g id="d"><use transform="matrix(0.017777777777777774,0,0,0.017777777777777774,0,0)" xlink:href="#E"/><use transform="matrix(0.017777777777777774,0,0,0.017777777777777774,7.946666666666665,0)" xlink:href="#D"/><use transform="matrix(0.017777777777777774,0,0,0.017777777777777774,23.41333333333333,0)" xlink:href="#R"/><use transform="matrix(0.017777777777777774,0,0,0.017777777777777774,30.773333333333326,0)" xlink:href="#S"/><use transform="matrix(0.017777777777777774,0,0,0.017777777777777774,35.73333333333333,0)" xlink:href="#T"/></g><path fill="#3a414a" d="M177 13c-22 0-50-8-77-15-8 0-12 4-17 14H66L55-108h17C80-46 120-6 173-6c42 0 76-32 76-72 0-36-26-67-98-115-82-55-97-74-97-122 0-103 127-148 223-105l3 99h-19c-9-55-42-90-85-90-37 0-66 27-66 61 0 35 18 55 84 97 73 46 116 60 116 144 0 69-58 122-133 122" id="U"/><path fill="#3a414a" d="M467-254c0 55-3 144-5 192-1 34 24 43 81 42V0H312v-20c107 2 84-88 84-199 0-79-4-106-17-129-17-29-46-45-83-45-36 0-62 10-125 46v213c0 81 1 81 10 94 10 15 26 20 60 20V0H27v-20c31-1 47-8 60-23 11-13 13-26 13-90v-449c0-55 0-55-6-62-3-9-48-12-68-14v-19l129-44h16v352c87-51 132-68 178-68 98 0 118 61 118 183" id="V"/><g id="e"><use transform="matrix(0.017777777777777774,0,0,0.017777777777777774,0,0)" xlink:href="#U"/><use transform="matrix(0.017777777777777774,0,0,0.017777777777777774,6.115555555555554,0)" xlink:href="#E"/><use transform="matrix(0.017777777777777774,0,0,0.017777777777777774,14.026666666666664,0)" xlink:href="#B"/><use transform="matrix(0.017777777777777774,0,0,0.017777777777777774,24.017777777777773,0)" xlink:href="#V"/><use transform="matrix(0.017777777777777774,0,0,0.017777777777777774,34.115555555555545,0)" xlink:href="#R"/></g><path fill="#3a414a" d="M24 0v-261h32V0H24" id="W"/><path fill="#3a414a" d="M117-194c89-4 53 116 60 194h-32v-121c0-31-8-49-39-48C34-167 62-67 57 0H25l-1-190h30c1 10-1 24 2 32 11-22 29-35 61-36" id="X"/><g id="f"><use transform="matrix(0.06172839506172839,0,0,0.06172839506172839,0,0)" xlink:href="#x"/><use transform="matrix(0.06172839506172839,0,0,0.06172839506172839,12.345679012345679,0)" xlink:href="#W"/><use transform="matrix(0.06172839506172839,0,0,0.06172839506172839,17.22222222222222,0)" xlink:href="#w"/><use transform="matrix(0.06172839506172839,0,0,0.06172839506172839,29.5679012345679,0)" xlink:href="#X"/><use transform="matrix(0.06172839506172839,0,0,0.06172839506172839,41.913580246913575,0)" xlink:href="#A"/></g><path fill="#3a414a" d="M205 11C114 11 84-40 84-152v-233H27v-21c61-23 138-105 158-166h30v130h142l-15 57H215v242c-3 62 8 72 50 81 26 0 51-17 81-54l16 30c-33 57-97 97-157 97" id="Y"/><path fill="#3a414a" d="M74-22v-539c8-60-28-61-66-78v-26l163-52h34v357c62-57 127-89 179-89 97 0 173 91 173 206C557-96 441 12 285 12 236 12 137-4 74-22zm131-158c0 102 29 146 96 146 76 0 121-60 121-161 0-155-137-225-217-114v129" id="Z"/><path fill="#3a414a" d="M37-209c0-140 96-240 230-240 104 0 172 56 185 159 3 17 8 26 21 34v24H174c6 91 66 164 136 164 38 0 78-23 129-77l24 21C402-39 316 11 233 11 117 11 37-79 37-209zm135-57h153c-1-82-29-132-76-132-49-1-81 58-77 132" id="aa"/><path fill="#3a414a" d="M219-119c-3 67 14 79 64 85V0H17v-34c52 3 71-15 71-75v-442c8-76-34-61-74-81v-32l186-53h19v598" id="ab"/><path fill="#3a414a" d="M514-227c-6-73-17-77-105-77H271v168c-1 84 15 95 93 94V0H42v-42c74-5 81-4 81-87v-409c0-71-18-88-80-87v-42h542v151h-39c-7-87-14-92-115-92H271v245h130c95 0 112-11 113-78h43v214h-43" id="ac"/><g id="g"><use transform="matrix(0.015555555555555552,0,0,0.015555555555555552,0,0)" xlink:href="#F"/><use transform="matrix(0.015555555555555552,0,0,0.015555555555555552,4.6822222222222205,0)" xlink:href="#G"/><use transform="matrix(0.015555555555555552,0,0,0.015555555555555552,13.891111111111107,0)" xlink:href="#H"/><use transform="matrix(0.015555555555555552,0,0,0.015555555555555552,21.668888888888883,0)" xlink:href="#Y"/><use transform="matrix(0.015555555555555552,0,0,0.015555555555555552,27.611111111111104,0)" xlink:href="#K"/><use transform="matrix(0.015555555555555552,0,0,0.015555555555555552,35.3111111111111,0)" xlink:href="#Z"/><use transform="matrix(0.015555555555555552,0,0,0.015555555555555552,44.5511111111111,0)" xlink:href="#aa"/><use transform="matrix(0.015555555555555552,0,0,0.015555555555555552,52.219999999999985,0)" xlink:href="#ab"/><use transform="matrix(0.015555555555555552,0,0,0.015555555555555552,56.88666666666665,0)" xlink:href="#K"/><use transform="matrix(0.015555555555555552,0,0,0.015555555555555552,64.58666666666664,0)" xlink:href="#N"/><use transform="matrix(0.015555555555555552,0,0,0.015555555555555552,70.49777777777776,0)" xlink:href="#ac"/><use transform="matrix(0.015555555555555552,0,0,0.015555555555555552,80.43777777777775,0)" xlink:href="#P"/><use transform="matrix(0.015555555555555552,0,0,0.015555555555555552,92.77333333333331,0)" xlink:href="#Q"/></g><path fill="#3a414a" d="M219-119c-3 72 16 82 74 85V0H20v-34c50 2 68-17 68-75v-215c3-22-38-42-73-49v-27l184-61h20v96c47-32 159-93 199-84 134-1 112 173 112 314 1 86-3 93 62 101V0H338v-34c48-6 61-36 61-141v-64c-1-166-79-150-180-82v202" id="ad"/><g id="h"><use transform="matrix(0.017777777777777774,0,0,0.017777777777777774,0,0)" xlink:href="#F"/><use transform="matrix(0.017777777777777774,0,0,0.017777777777777774,5.35111111111111,0)" xlink:href="#G"/><use transform="matrix(0.017777777777777774,0,0,0.017777777777777774,15.875555555555554,0)" xlink:href="#H"/><use transform="matrix(0.017777777777777774,0,0,0.017777777777777774,24.764444444444443,0)" xlink:href="#K"/><use transform="matrix(0.017777777777777774,0,0,0.017777777777777774,33.56444444444444,0)" xlink:href="#ab"/><use transform="matrix(0.017777777777777774,0,0,0.017777777777777774,38.9511111111111,0)" xlink:href="#I"/><use transform="matrix(0.017777777777777774,0,0,0.017777777777777774,49.813333333333325,0)" xlink:href="#ad"/><use transform="matrix(0.017777777777777774,0,0,0.017777777777777774,60.49777777777778,0)" xlink:href="#M"/><use transform="matrix(0.017777777777777774,0,0,0.017777777777777774,71.09333333333332,0)" xlink:href="#N"/><use transform="matrix(0.017777777777777774,0,0,0.017777777777777774,77.84888888888888,0)" xlink:href="#O"/><use transform="matrix(0.017777777777777774,0,0,0.017777777777777774,90.18666666666665,0)" xlink:href="#P"/><use transform="matrix(0.017777777777777774,0,0,0.017777777777777774,104.28444444444442,0)" xlink:href="#Q"/><path fill="#3a414a" d="M-.9.9h112.83v.88H-.9z"/></g><g id="i"><use transform="matrix(0.017777777777777774,0,0,0.017777777777777774,0,0)" xlink:href="#F"/><use transform="matrix(0.017777777777777774,0,0,0.017777777777777774,5.35111111111111,0)" xlink:href="#G"/><use transform="matrix(0.017777777777777774,0,0,0.017777777777777774,15.875555555555554,0)" xlink:href="#H"/><use transform="matrix(0.017777777777777774,0,0,0.017777777777777774,24.764444444444443,0)" xlink:href="#I"/><use transform="matrix(0.017777777777777774,0,0,0.017777777777777774,35.626666666666665,0)" xlink:href="#J"/><use transform="matrix(0.017777777777777774,0,0,0.017777777777777774,42.77333333333333,0)" xlink:href="#I"/><use transform="matrix(0.017777777777777774,0,0,0.017777777777777774,53.68888888888889,0)" xlink:href="#K"/><use transform="matrix(0.017777777777777774,0,0,0.017777777777777774,62.48888888888889,0)" xlink:href="#L"/><use transform="matrix(0.017777777777777774,0,0,0.017777777777777774,70.45333333333333,0)" xlink:href="#F"/><use transform="matrix(0.017777777777777774,0,0,0.017777777777777774,75.68,0)" xlink:href="#M"/><use transform="matrix(0.017777777777777774,0,0,0.017777777777777774,86.27555555555556,0)" xlink:href="#N"/><use transform="matrix(0.017777777777777774,0,0,0.017777777777777774,93.03111111111112,0)" xlink:href="#ac"/><use transform="matrix(0.017777777777777774,0,0,0.017777777777777774,104.39111111111113,0)" xlink:href="#P"/><use transform="matrix(0.017777777777777774,0,0,0.017777777777777774,118.4888888888889,0)" xlink:href="#Q"/></g><path fill="#3a414a" d="M127-220V0H93v-220H8v-28h204v28h-85" id="ae"/><path fill="#3a414a" d="M115-194c53 0 69 39 70 98 0 66-23 100-70 100C84 3 66-7 56-30L54 0H23l1-261h32v101c10-23 28-34 59-34zm-8 174c40 0 45-34 45-75 0-40-5-75-45-74-42 0-51 32-51 76 0 43 10 73 51 73" id="af"/><path fill="#3a414a" d="M100-194c63 0 86 42 84 106H49c0 40 14 67 53 68 26 1 43-12 49-29l28 8c-11 28-37 45-77 45C44 4 14-33 15-96c1-61 26-98 85-98zm52 81c6-60-76-77-97-28-3 7-6 17-6 28h103" id="ag"/><path fill="#3a414a" d="M-5 72V49h209v23H-5" id="ah"/><path fill="#3a414a" d="M141 0L90-78 38 0H4l68-98-65-92h35l48 74 47-74h35l-64 92 68 98h-35" id="ai"/><path fill="#3a414a" d="M96-169c-40 0-48 33-48 73s9 75 48 75c24 0 41-14 43-38l32 2c-6 37-31 61-74 61-59 0-76-41-82-99-10-93 101-131 147-64 4 7 5 14 7 22l-32 3c-4-21-16-35-41-35" id="aj"/><g id="j"><use transform="matrix(0.055555555555555546,0,0,0.055555555555555546,0,0)" xlink:href="#ae"/><use transform="matrix(0.055555555555555546,0,0,0.055555555555555546,9.944444444444443,0)" xlink:href="#x"/><use transform="matrix(0.055555555555555546,0,0,0.055555555555555546,21.05555555555555,0)" xlink:href="#af"/><use transform="matrix(0.055555555555555546,0,0,0.055555555555555546,32.16666666666666,0)" xlink:href="#ag"/><use transform="matrix(0.055555555555555546,0,0,0.055555555555555546,43.277777777777764,0)" xlink:href="#W"/><use transform="matrix(0.055555555555555546,0,0,0.055555555555555546,47.66666666666665,0)" xlink:href="#x"/><use transform="matrix(0.055555555555555546,0,0,0.055555555555555546,58.77777777777776,0)" xlink:href="#ah"/><use transform="matrix(0.055555555555555546,0,0,0.055555555555555546,69.88888888888887,0)" xlink:href="#ag"/><use transform="matrix(0.055555555555555546,0,0,0.055555555555555546,80.99999999999999,0)" xlink:href="#ai"/><use transform="matrix(0.055555555555555546,0,0,0.055555555555555546,90.99999999999999,0)" xlink:href="#ag"/><use transform="matrix(0.055555555555555546,0,0,0.055555555555555546,102.1111111111111,0)" xlink:href="#y"/><use transform="matrix(0.055555555555555546,0,0,0.055555555555555546,108.72222222222221,0)" xlink:href="#aj"/><use transform="matrix(0.055555555555555546,0,0,0.055555555555555546,118.72222222222223,0)" xlink:href="#z"/><use transform="matrix(0.055555555555555546,0,0,0.055555555555555546,123.11111111111109,0)" xlink:href="#aj"/><use transform="matrix(0.055555555555555546,0,0,0.055555555555555546,133.1111111111111,0)" xlink:href="#z"/><use transform="matrix(0.055555555555555546,0,0,0.055555555555555546,137.49999999999997,0)" xlink:href="#A"/></g><g id="k"><use transform="matrix(0.015555555555555552,0,0,0.015555555555555552,0,0)" xlink:href="#F"/><use transform="matrix(0.015555555555555552,0,0,0.015555555555555552,4.6822222222222205,0)" xlink:href="#G"/><use transform="matrix(0.015555555555555552,0,0,0.015555555555555552,13.891111111111107,0)" xlink:href="#N"/><use transform="matrix(0.015555555555555552,0,0,0.015555555555555552,19.802222222222216,0)" xlink:href="#O"/><use transform="matrix(0.015555555555555552,0,0,0.015555555555555552,30.597777777777768,0)" xlink:href="#P"/><use transform="matrix(0.015555555555555552,0,0,0.015555555555555552,42.93333333333332,0)" xlink:href="#Q"/><path fill="#3a414a" d="M-.78.78h50.4v.78H-.78z"/></g><g id="l"><use transform="matrix(0.017777777777777774,0,0,0.017777777777777774,0,0)" xlink:href="#F"/><use transform="matrix(0.017777777777777774,0,0,0.017777777777777774,5.35111111111111,0)" xlink:href="#G"/><use transform="matrix(0.017777777777777774,0,0,0.017777777777777774,15.875555555555554,0)" xlink:href="#H"/><use transform="matrix(0.017777777777777774,0,0,0.017777777777777774,24.764444444444443,0)" xlink:href="#K"/><use transform="matrix(0.017777777777777774,0,0,0.017777777777777774,33.56444444444444,0)" xlink:href="#ab"/><use transform="matrix(0.017777777777777774,0,0,0.017777777777777774,38.9511111111111,0)" xlink:href="#I"/><use transform="matrix(0.017777777777777774,0,0,0.017777777777777774,49.813333333333325,0)" xlink:href="#ad"/><use transform="matrix(0.017777777777777774,0,0,0.017777777777777774,60.49777777777778,0)" xlink:href="#M"/><use transform="matrix(0.017777777777777774,0,0,0.017777777777777774,71.09333333333332,0)" xlink:href="#N"/><use transform="matrix(0.017777777777777774,0,0,0.017777777777777774,77.84888888888888,0)" xlink:href="#ac"/><use transform="matrix(0.017777777777777774,0,0,0.017777777777777774,89.20888888888886,0)" xlink:href="#P"/><use transform="matrix(0.017777777777777774,0,0,0.017777777777777774,103.30666666666666,0)" xlink:href="#Q"/></g><path fill="#3a414a" d="M450-117c0 86 20 68 78 54v22L392 13h-13v-77c-72 51-129 77-169 77-94 0-171-93-171-208 0-171 171-287 340-216v-183c0-56-1-56-43-61l-36-4v-18l137-44h13v604zM110-226c0 107 62 192 140 192 33 0 84-20 129-51v-237c-40-57-79-81-131-81-80 0-138 74-138 177" id="ak"/><path fill="#3a414a" d="M103-41C88-65 87-77 87-154v-224H38v-17c40-19 81-73 102-136h18v106h153l-17 47H158v199c0 77 2 91 16 109 41 51 89 42 121-21l17 15C277 22 157 46 103-41" id="al"/><path fill="#3a414a" d="M0 88h500v43H0V88" id="am"/><path fill="#3a414a" d="M8 0v-20c58-5 70-13 128-78l96-108-90-118c-49-64-70-78-127-81v-20h217v19c-19 0-50 0-48 18 11 32 72 100 94 133 21-26 93-99 88-121 0-21-14-29-55-30v-19h207v20c-78 5-88 14-172 107l-54 60 102 128c59 74 73 86 125 90V0H304v-19c74-9 59-20 22-67l-78-103-78 89c-29 34-31 35-31 45 0 21 19 31 69 36V0H8" id="an"/><path fill="#3a414a" d="M246-368c-33 0-65 69-75 81v153c0 81 0 81 10 94 8 24 62 20 101 20V0H29v-20c23 1 46-9 58-23 11-14 13-25 13-90v-216l-71-26v-18l121-43h21v113c33-45 66-139 141-98 9 5 32 10 55 16l-26 65c-22 0-70-28-95-28" id="ao"/><path fill="#3a414a" d="M226 13C114 13 41-85 40-194c0-134 111-243 247-243 67 0 120 27 120 61 0 18-14 32-32 32-33 10-87-78-125-66-74 0-138 89-138 191 0 108 64 188 151 188 53 0 89-21 131-77l16 9C366-27 301 13 226 13" id="ap"/><g id="m"><use transform="matrix(0.017777777777777774,0,0,0.017777777777777774,0,0)" xlink:href="#ak"/><use transform="matrix(0.017777777777777774,0,0,0.017777777777777774,9.866666666666664,0)" xlink:href="#R"/><use transform="matrix(0.017777777777777774,0,0,0.017777777777777774,17.066666666666663,0)" xlink:href="#al"/><use transform="matrix(0.017777777777777774,0,0,0.017777777777777774,23.07555555555555,0)" xlink:href="#R"/><use transform="matrix(0.017777777777777774,0,0,0.017777777777777774,30.43555555555555,0)" xlink:href="#am"/><use transform="matrix(0.017777777777777774,0,0,0.017777777777777774,39.32444444444444,0)" xlink:href="#E"/><use transform="matrix(0.017777777777777774,0,0,0.017777777777777774,47.182222222222215,0)" xlink:href="#an"/><use transform="matrix(0.017777777777777774,0,0,0.017777777777777774,56.19555555555554,0)" xlink:href="#E"/><use transform="matrix(0.017777777777777774,0,0,0.017777777777777774,64.0711111111111,0)" xlink:href="#ao"/><use transform="matrix(0.017777777777777774,0,0,0.017777777777777774,70.18666666666664,0)" xlink:href="#ap"/><use transform="matrix(0.017777777777777774,0,0,0.017777777777777774,78.16888888888886,0)" xlink:href="#S"/><use transform="matrix(0.017777777777777774,0,0,0.017777777777777774,82.87999999999997,0)" xlink:href="#ap"/><use transform="matrix(0.017777777777777774,0,0,0.017777777777777774,90.86222222222219,0)" xlink:href="#S"/><use transform="matrix(0.017777777777777774,0,0,0.017777777777777774,95.51999999999995,0)" xlink:href="#C"/></g><path d="M85-194c31 0 48 13 60 33l-1-100h32l1 261h-30c-2-10 0-23-3-31C134-8 116 4 85 4 32 4 16-35 15-94c0-66 23-100 70-100zm9 24c-40 0-46 34-46 75 0 40 6 74 45 74 42 0 51-32 51-76 0-42-9-74-50-73" id="aq"/><path d="M100-194c63 0 86 42 84 106H49c0 40 14 67 53 68 26 1 43-12 49-29l28 8c-11 28-37 45-77 45C44 4 14-33 15-96c1-61 26-98 85-98zm52 81c6-60-76-77-97-28-3 7-6 17-6 28h103" id="ar"/><path d="M135-143c-3-34-86-38-87 0 15 53 115 12 119 90S17 21 10-45l28-5c4 36 97 45 98 0-10-56-113-15-118-90-4-57 82-63 122-42 12 7 21 19 24 35" id="as"/><path d="M96-169c-40 0-48 33-48 73s9 75 48 75c24 0 41-14 43-38l32 2c-6 37-31 61-74 61-59 0-76-41-82-99-10-93 101-131 147-64 4 7 5 14 7 22l-32 3c-4-21-16-35-41-35" id="at"/><path d="M114-163C36-179 61-72 57 0H25l-1-190h30c1 12-1 29 2 39 6-27 23-49 58-41v29" id="au"/><path d="M24-231v-30h32v30H24zM24 0v-190h32V0H24" id="av"/><path d="M96-169c-40 0-48 33-48 73s9 75 48 75c24 0 41-14 43-38l32 2c-6 37-31 61-74 61-59 0-76-41-82-99-10-93 101-131 147-64 4 7 5 14 7 22l-32 3c-4-21-16-35-41-35zm3 187c19-1 33 8 33 26 0 31-30 33-64 32V58c18 2 39 4 41-13 1-15-18-13-34-13L87 0h19" id="aw"/><path d="M141-36C126-15 110 5 73 4 37 3 15-17 15-53c-1-64 63-63 125-63 3-35-9-54-41-54-24 1-41 7-42 31l-33-3c5-37 33-52 76-52 45 0 72 20 72 64v82c-1 20 7 32 28 27v20c-31 9-61-2-59-35zM48-53c0 20 12 33 32 33 41-3 63-29 60-74-43 2-92-5-92 41zm117-205c-3 23-9 48-36 47-26-1-65-44-74 0H39c4-23 8-48 36-47s64 44 74 0h16" id="ax"/><path d="M100-194c62-1 85 37 85 99 1 63-27 99-86 99S16-35 15-95c0-66 28-99 85-99zM99-20c44 1 53-31 53-75 0-43-8-75-51-75s-53 32-53 75 10 74 51 75" id="ay"/><g id="n"><use transform="matrix(0.048148148148148155,0,0,0.048148148148148155,0,0)" xlink:href="#aq"/><use transform="matrix(0.048148148148148155,0,0,0.048148148148148155,9.629629629629632,0)" xlink:href="#ar"/><use transform="matrix(0.048148148148148155,0,0,0.048148148148148155,19.259259259259263,0)" xlink:href="#as"/><use transform="matrix(0.048148148148148155,0,0,0.048148148148148155,27.92592592592593,0)" xlink:href="#at"/><use transform="matrix(0.048148148148148155,0,0,0.048148148148148155,36.592592592592595,0)" xlink:href="#au"/><use transform="matrix(0.048148148148148155,0,0,0.048148148148148155,42.32222222222222,0)" xlink:href="#av"/><use transform="matrix(0.048148148148148155,0,0,0.048148148148148155,46.12592592592593,0)" xlink:href="#aw"/><use transform="matrix(0.048148148148148155,0,0,0.048148148148148155,54.7925925925926,0)" xlink:href="#ax"/><use transform="matrix(0.048148148148148155,0,0,0.048148148148148155,64.42222222222223,0)" xlink:href="#ay"/></g><path fill="#3a414a" d="M219-119c-3 71 16 81 72 85V0H20v-34c50 2 68-17 68-75v-215c5-24-42-42-70-49v-27l181-61h20v123c117-83 176-111 232-111 61 0 102 41 111 111 47-38 178-111 237-111 78 0 112 56 112 184v130c1 84-3 93 60 101V0H719v-34c48-6 61-36 61-141v-64c0-91-19-129-66-129-34 0-74 18-148 67v182c-3 65 14 79 60 85V0H374v-34c95 9 61-147 61-229 0-71-21-105-65-105-39 0-81 19-151 69v180" id="az"/><g id="p"><use transform="matrix(0.017777777777777774,0,0,0.017777777777777774,0,0)" xlink:href="#ad"/><use transform="matrix(0.017777777777777774,0,0,0.017777777777777774,10.68444444444444,0)" xlink:href="#M"/><use transform="matrix(0.017777777777777774,0,0,0.017777777777777774,21.208888888888882,0)" xlink:href="#az"/><use transform="matrix(0.017777777777777774,0,0,0.017777777777777774,38.773333333333326,0)" xlink:href="#aa"/></g><path fill="#3a414a" d="M212-179c-10-28-35-45-73-45-59 0-87 40-87 99 0 60 29 101 89 101 43 0 62-24 78-52l27 14C228-24 195 4 139 4 59 4 22-46 18-125c-6-104 99-153 187-111 19 9 31 26 39 46" id="aA"/><path fill="#3a414a" d="M85-194c31 0 48 13 60 33l-1-100h32l1 261h-30c-2-10 0-23-3-31C134-8 116 4 85 4 32 4 16-35 15-94c0-66 23-100 70-100zm9 24c-40 0-46 34-46 75 0 40 6 74 45 74 42 0 51-32 51-76 0-42-9-74-50-73" id="aB"/><path fill="#3a414a" d="M59-47c-2 24 18 29 38 22v24C64 9 27 4 27-40v-127H5v-23h24l9-43h21v43h35v23H59v120" id="aC"/><g id="q"><use transform="matrix(0.06172839506172839,0,0,0.06172839506172839,0,0)" xlink:href="#aA"/><use transform="matrix(0.06172839506172839,0,0,0.06172839506172839,15.987654320987653,0)" xlink:href="#x"/><use transform="matrix(0.06172839506172839,0,0,0.06172839506172839,28.333333333333332,0)" xlink:href="#aB"/><use transform="matrix(0.06172839506172839,0,0,0.06172839506172839,40.67901234567901,0)" xlink:href="#x"/><use transform="matrix(0.06172839506172839,0,0,0.06172839506172839,53.02469135802469,0)" xlink:href="#v"/><use transform="matrix(0.06172839506172839,0,0,0.06172839506172839,64.1358024691358,0)" xlink:href="#aC"/><use transform="matrix(0.06172839506172839,0,0,0.06172839506172839,70.30864197530863,0)" xlink:href="#y"/><use transform="matrix(0.06172839506172839,0,0,0.06172839506172839,77.65432098765432,0)" xlink:href="#x"/></g><path fill="#333" d="M27 0v-27h64v-190l-56 39v-29l58-41h29v221h61V0H27" id="aD"/><path fill="#333" d="M68-38c1 34 0 65-14 84H32c9-13 17-26 17-46H33v-38h35" id="aE"/><path fill="#333" d="M117-194c89-4 53 116 60 194h-32v-121c0-31-8-49-39-48C34-167 62-67 57 0H25l-1-190h30c1 10-1 24 2 32 11-22 29-35 61-36" id="aF"/><g id="r"><use transform="matrix(0.04938271604938272,0,0,0.04938271604938272,0,0)" xlink:href="#aD"/><use transform="matrix(0.04938271604938272,0,0,0.04938271604938272,9.876543209876544,0)" xlink:href="#aE"/><use transform="matrix(0.04938271604938272,0,0,0.04938271604938272,14.814814814814817,0)" xlink:href="#aF"/></g><path fill="#3a414a" d="M233-177c-1 41-23 64-60 70L243 0h-38l-65-103H63V0H30v-248c88 3 205-21 203 71zM63-129c60-2 137 13 137-47 0-61-80-42-137-45v92" id="aG"/><g id="s"><use transform="matrix(0.06172839506172839,0,0,0.06172839506172839,0,0)" xlink:href="#aG"/><use transform="matrix(0.06172839506172839,0,0,0.06172839506172839,15.987654320987653,0)" xlink:href="#ag"/><use transform="matrix(0.06172839506172839,0,0,0.06172839506172839,28.333333333333332,0)" xlink:href="#aj"/><use transform="matrix(0.06172839506172839,0,0,0.06172839506172839,39.44444444444444,0)" xlink:href="#ag"/><use transform="matrix(0.06172839506172839,0,0,0.06172839506172839,51.79012345679012,0)" xlink:href="#af"/><use transform="matrix(0.06172839506172839,0,0,0.06172839506172839,64.1358024691358,0)" xlink:href="#ag"/></g><path fill="#333" d="M33 0v-38h34V0H33" id="aH"/><g id="t"><use transform="matrix(0.04938271604938272,0,0,0.04938271604938272,0,0)" xlink:href="#aF"/><use transform="matrix(0.04938271604938272,0,0,0.04938271604938272,9.876543209876544,0)" xlink:href="#aH"/><use transform="matrix(0.04938271604938272,0,0,0.04938271604938272,14.814814814814817,0)" xlink:href="#aF"/></g></defs></g></svg>